<svg width="128" height="128" viewBox="0 0 128 128" xmlns="http://www.w3.org/2000/svg">
  <!-- Background circle -->
  <circle cx="64" cy="64" r="60" fill="#0078D4"/>
  
  <!-- Document/file icon -->
  <rect x="30" y="28" width="48" height="60" rx="2" fill="white" opacity="0.9"/>
  <path d="M 78 28 L 78 44 L 94 44 L 78 28 Z" fill="white" opacity="0.7"/>
  <polygon points="78,28 78,44 94,44" fill="#E0E0E0"/>
  
  <!-- XLF file lines (representing trans-units) -->
  <rect x="38" y="40" width="32" height="3" rx="1" fill="#0078D4" opacity="0.6"/>
  <rect x="38" y="48" width="28" height="3" rx="1" fill="#0078D4" opacity="0.6"/>
  <rect x="38" y="56" width="34" height="3" rx="1" fill="#0078D4" opacity="0.6"/>
  <rect x="38" y="64" width="30" height="3" rx="1" fill="#0078D4" opacity="0.6"/>
  
  <!-- Checkmark icon (validation) -->
  <circle cx="80" cy="80" r="18" fill="#107C10"/>
  <path d="M 72 80 L 78 86 L 88 74" stroke="white" stroke-width="3" fill="none" stroke-linecap="round" stroke-linejoin="round"/>
  
  <!-- Globe icon (translations/languages) -->
  <circle cx="48" cy="96" r="14" fill="#FFB900" opacity="0.95"/>
  <circle cx="48" cy="96" r="14" fill="none" stroke="white" stroke-width="2"/>
  <ellipse cx="48" cy="96" rx="6" ry="14" fill="none" stroke="white" stroke-width="1.5"/>
  <line x1="34" y1="96" x2="62" y2="96" stroke="white" stroke-width="1.5"/>
  <line x1="48" y1="82" x2="48" y2="110" stroke="white" stroke-width="1.5"/>
</svg>
